<svg width="400" height="400" viewBox="0 0 400 400" fill="none" xmlns="http://www.w3.org/2000/svg">
  <defs>
    <linearGradient id="bg_gradient" x1="0" y1="0" x2="400" y2="400" gradientUnits="userSpaceOnUse">
      <stop offset="0%" stop-color="#E0F7FA" />
      <stop offset="100%" stop-color="#B2EBF2" />
    </linearGradient>
    <linearGradient id="tower_gradient" x1="200" y1="50" x2="200" y2="180" gradientUnits="userSpaceOnUse">
      <stop offset="0%" stop-color="#FF6B6B" /> <stop offset="100%" stop-color="#FF8E8E" />
    </linearGradient>
  </defs>
  <rect width="400" height="400" rx="40" fill="url(#bg_gradient)" />

  <g transform="translate(50, 50)">
    <path d="M150 180 L135 130 L145 130 L145 60 L135 60 L150 20 L165 60 L155 60 L155 130 L165 130 L150 180 Z" fill="url(#tower_gradient)" stroke="#D32F2F" stroke-width="3" stroke-linejoin="round"/>
    <circle cx="150" cy="40" r="5" fill="#D32F2F" />

    <g stroke="#039BE5" stroke-width="4" stroke-linecap="round">
      <path d="M120 40 A 40 40 0 0 1 180 40" opacity="0.6"/>
      <path d="M110 30 A 60 60 0 0 1 190 30" opacity="0.4"/>
      <path d="M100 20 A 80 80 0 0 1 200 20" opacity="0.2"/>
    </g>

    <g transform="translate(0, 160)">
      <path d="M150 90 C 100 80, 50 100, 20 120 V 180 C 50 160, 100 140, 150 150 C 200 140, 250 160, 280 180 V 120 C 250 100, 200 80, 150 90 Z" fill="#FFFFFF" stroke="#0277BD" stroke-width="3" stroke-linejoin="round"/>
      <line x1="150" y1="90" x2="150" y2="150" stroke="#0277BD" stroke-width="3"/>
      <path d="M140 105 C 100 98, 60 110, 35 125" stroke="#B3E5FC" stroke-width="2"/>
      <path d="M140 120 C 100 113, 60 125, 35 140" stroke="#B3E5FC" stroke-width="2"/>
      <path d="M160 105 C 200 98, 240 110, 265 125" stroke="#B3E5FC" stroke-width="2"/>
      <path d="M160 120 C 200 113, 240 125, 265 140" stroke="#B3E5FC" stroke-width="2"/>
    </g>

    <g transform="translate(150, 240)">
      <circle cx="0" cy="0" r="30" fill="#FFFFFF" stroke="#0277BD" stroke-width="3"/>
      <line x1="20" y1="20" x2="40" y2="40" stroke="#0277BD" stroke-width="4" stroke-linecap="round"/>
      <path d="M-15 -5 L-5 10 L 20 -15" fill="none" stroke="#00C853" stroke-width="5" stroke-linecap="round" stroke-linejoin="round"/>
    </g>

    <text x="150" y="330" font-family="'Noto Sans KR', sans-serif" font-size="24" font-weight="bold" fill="#01579B" text-anchor="middle">서울 전자도서관</text>
    <text x="150" y="360" font-family="'Noto Sans KR', sans-serif" font-size="18" fill="#0277BD" text-anchor="middle">대여 가능 확인</text>
  </g>
</svg>